<svg width="128" height="128" viewBox="0 0 128 128" fill="none" xmlns="http://www.w3.org/2000/svg">
<path opacity="0.987" fill-rule="evenodd" clip-rule="evenodd" d="M110.125 44.875C108.782 45.4635 107.449 46.047 106.125 46.625C102.565 47.0318 99.7737 45.7818 97.75 42.875C90.6157 29.01 79.199 21.8434 63.5 21.375C49.6382 22.0547 38.9715 28.2213 31.5 39.875C29.9115 44.6465 26.62 46.8965 21.625 46.625C20.2451 46.186 18.9118 45.6025 17.625 44.875C14.7431 41.893 14.1181 38.4765 15.75 34.625C24.1116 19.0196 36.9867 9.39455 54.375 5.75C75.5355 2.88328 92.9105 9.59163 106.5 25.875C108.877 28.9598 110.877 32.293 112.5 35.875C113.423 39.35 112.631 42.35 110.125 44.875Z" fill="#E53935"/>
<path opacity="0.998" fill-rule="evenodd" clip-rule="evenodd" d="M45.875 39.875C45.875 60.5418 45.875 81.2083 45.875 101.875C39.536 101.968 35.536 105.051 33.875 111.125C33.8333 90.0415 33.875 68.9583 34 47.875C34.3255 46.9315 34.8673 46.1398 35.625 45.5C38.4165 43.8963 41.1665 42.2295 43.875 40.5C44.4773 40.0733 45.1438 39.865 45.875 39.875Z" fill="#4A0FDF"/>
<path fill-rule="evenodd" clip-rule="evenodd" d="M45.875 39.875C60.792 39.8333 75.7085 39.875 90.625 40C92.1667 40.5418 93.2082 41.5833 93.75 43.125C93.875 63.1248 93.9167 83.1248 93.875 103.125C93.492 102.62 92.992 102.245 92.375 102C76.8752 101.875 61.3752 101.833 45.875 101.875C45.875 81.2083 45.875 60.5418 45.875 39.875Z" fill="#3541E5"/>
<path opacity="0.947" fill-rule="evenodd" clip-rule="evenodd" d="M110.125 44.875C111.526 51.21 112.11 57.6267 111.875 64.125C110.474 63.8982 109.057 63.815 107.625 63.875C107.823 58.0578 107.323 52.3078 106.125 46.625C107.449 46.047 108.782 45.4635 110.125 44.875Z" fill="#212120"/>
<path opacity="0.948" fill-rule="evenodd" clip-rule="evenodd" d="M17.6251 44.875C18.9119 45.6025 20.2452 46.186 21.6251 46.625C20.3396 52.3 19.8396 58.05 20.1251 63.875C18.6933 63.815 17.2767 63.8982 15.8751 64.125C15.5629 57.6203 16.1462 51.2035 17.6251 44.875Z" fill="#212120"/>
<path fill-rule="evenodd" clip-rule="evenodd" d="M60.6251 57.625C61.7341 57.5525 62.8176 57.6775 63.8751 58C69.8751 60.8333 75.8751 63.6668 81.8751 66.5C85.7593 69.8018 85.8426 73.2185 82.1251 76.75C76.3341 80.0203 70.5841 83.3535 64.8751 86.75C60.4481 88.4315 57.4896 87.0565 56.0001 82.625C55.8333 75.7918 55.8333 68.9583 56.0001 62.125C56.8603 59.8893 58.4021 58.3893 60.6251 57.625Z" fill="#EEEDED"/>
<path opacity="0.996" fill-rule="evenodd" clip-rule="evenodd" d="M20.1251 63.875C23.8418 63.253 26.3836 64.6695 27.7501 68.125C27.9168 79.2918 27.9168 90.4583 27.7501 101.625C26.3138 105.157 23.6889 106.574 19.8751 105.875C16.1838 106.572 13.6005 105.239 12.1251 101.875C11.7942 90.537 11.7942 79.2035 12.1251 67.875C12.7918 66.0418 14.0418 64.7918 15.8751 64.125C17.2767 63.8983 18.6933 63.815 20.1251 63.875Z" fill="#06A33B"/>
<path opacity="0.996" fill-rule="evenodd" clip-rule="evenodd" d="M107.625 63.875C109.057 63.815 110.474 63.8983 111.875 64.125C113.708 64.7918 114.958 66.0418 115.625 67.875C115.958 79.2083 115.958 90.5418 115.625 101.875C114.15 105.239 111.566 106.572 107.875 105.875C104.061 106.574 101.436 105.157 100 101.625C99.8333 90.4583 99.8333 79.2918 100 68.125C101.367 64.6695 103.908 63.253 107.625 63.875Z" fill="#FFBB00"/>
<path opacity="0.991" fill-rule="evenodd" clip-rule="evenodd" d="M12.125 67.875C11.7942 79.2035 11.7942 90.537 12.125 101.875C7.95941 101.833 5.25108 99.833 4.00001 95.875C3.83333 88.5417 3.83333 81.2083 4.00001 73.875C5.25108 69.917 7.95941 67.917 12.125 67.875Z" fill="#212020"/>
<path opacity="0.992" fill-rule="evenodd" clip-rule="evenodd" d="M115.625 67.875C119.791 67.917 122.499 69.917 123.75 73.875C123.917 81.2083 123.917 88.5417 123.75 95.875C122.499 99.833 119.791 101.833 115.625 101.875C115.958 90.5417 115.958 79.2083 115.625 67.875Z" fill="#202020"/>
<path opacity="0.997" fill-rule="evenodd" clip-rule="evenodd" d="M45.875 101.875C61.3752 101.833 76.8752 101.875 92.375 102C92.992 102.245 93.492 102.62 93.875 103.125C93.875 104.708 93.875 106.292 93.875 107.875C77.1247 107.833 60.3747 107.875 43.625 108C39.8285 109.795 38.9535 112.503 41 116.125C41.7475 116.873 42.6225 117.414 43.625 117.75C60.3747 117.875 77.1247 117.917 93.875 117.875C94.252 120.664 93.1687 122.623 90.625 123.75C74.5417 123.917 58.4582 123.917 42.375 123.75C36.2065 121.788 33.3732 117.58 33.875 111.125C35.536 105.051 39.536 101.968 45.875 101.875Z" fill="#2862C6"/>
<path fill-rule="evenodd" clip-rule="evenodd" d="M93.875 107.875C93.875 111.208 93.875 114.542 93.875 117.875C77.1247 117.917 60.3747 117.875 43.625 117.75C42.6225 117.414 41.7475 116.873 41 116.125C38.9535 112.503 39.8285 109.795 43.625 108C60.3747 107.875 77.1247 107.833 93.875 107.875Z" fill="#EDEDED"/>
</svg>
